<svg width="24" height="24" viewBox="0 0 24 24" fill="none" xmlns="http://www.w3.org/2000/svg">
<mask id="mask0_24_25" style="mask-type:alpha" maskUnits="userSpaceOnUse" x="0" y="0" width="24" height="24">
<rect width="24" height="24" fill="#D9D9D9"/>
</mask>
<g mask="url(#mask0_24_25)">
<path d="M20.6499 9.37501L19.2499 7.97501L19.9999 7.20001L16.7999 4.00001L16.0249 4.75001L14.5999 3.32501L15.3499 2.55001C15.7332 2.16668 16.2082 1.97918 16.7749 1.98751C17.3416 1.99584 17.8166 2.19168 18.1999 2.57501L21.4249 5.80001C21.8082 6.18334 21.9999 6.65418 21.9999 7.21251C21.9999 7.77084 21.8082 8.24168 21.4249 8.62501L20.6499 9.37501ZM8.6499 21.4C8.26657 21.7833 7.79574 21.975 7.2374 21.975C6.67907 21.975 6.20824 21.7833 5.8249 21.4L2.5999 18.175C2.21657 17.7917 2.0249 17.3208 2.0249 16.7625C2.0249 16.2042 2.21657 15.7333 2.5999 15.35L3.3499 14.6L4.7749 16.025L3.9999 16.775L7.2249 20L7.9749 19.225L9.3999 20.65L8.6499 21.4ZM18.5749 13L19.9999 11.575L12.4249 4.00001L10.9999 5.42501L18.5749 13ZM11.5749 20L12.9999 18.55L5.4499 11L3.9999 12.425L11.5749 20ZM11.4249 14.15L14.1749 11.425L12.5749 9.82501L9.8499 12.575L11.4249 14.15ZM12.9999 21.4C12.6166 21.7833 12.1416 21.975 11.5749 21.975C11.0082 21.975 10.5332 21.7833 10.1499 21.4L2.5999 13.85C2.21657 13.4667 2.0249 12.9917 2.0249 12.425C2.0249 11.8583 2.21657 11.3833 2.5999 11L4.0249 9.57501C4.40824 9.19168 4.87907 9.00001 5.4374 9.00001C5.99574 9.00001 6.46657 9.19168 6.8499 9.57501L8.4249 11.15L11.1749 8.40001L9.5999 6.85001C9.21657 6.46668 9.0249 5.99168 9.0249 5.42501C9.0249 4.85834 9.21657 4.38334 9.5999 4.00001L11.0249 2.57501C11.4082 2.19168 11.8791 2.00001 12.4374 2.00001C12.9957 2.00001 13.4666 2.19168 13.8499 2.57501L21.4249 10.15C21.8082 10.5333 21.9999 11.0042 21.9999 11.5625C21.9999 12.1208 21.8082 12.5917 21.4249 12.975L19.9999 14.4C19.6166 14.7833 19.1416 14.975 18.5749 14.975C18.0082 14.975 17.5332 14.7833 17.1499 14.4L15.5999 12.825L12.8499 15.575L14.4249 17.15C14.8082 17.5333 14.9999 18.0042 14.9999 18.5625C14.9999 19.1208 14.8082 19.5917 14.4249 19.975L12.9999 21.4Z" fill="#1C1B1F"/>
</g>
</svg>
